<svg id="visual" viewBox="0 0 900 600" width="900" height="600" xmlns="http://www.w3.org/2000/svg" xmlns:xlink="http://www.w3.org/1999/xlink" version="1.1"><path d="M0 481L25 486.7C50 492.3 100 503.7 150 502.3C200 501 250 487 300 479.8C350 472.7 400 472.3 450 480C500 487.7 550 503.3 600 500.8C650 498.3 700 477.7 750 477.3C800 477 850 497 875 507L900 517L900 601L875 601C850 601 800 601 750 601C700 601 650 601 600 601C550 601 500 601 450 601C400 601 350 601 300 601C250 601 200 601 150 601C100 601 50 601 25 601L0 601Z" fill="#FCAF3C" stroke-linecap="round" stroke-linejoin="miter"></path></svg>